<svg width="27" height="220" viewBox="0 0 27 220" fill="none" xmlns="http://www.w3.org/2000/svg">
<path d="M7.476 115.182C7.084 115.182 6.888 114.939 6.888 114.454V110.128L2.079 115.084H0.98V109.05C0.98 108.593 1.176 108.364 1.568 108.364C1.96 108.364 2.156 108.607 2.156 109.092V113.474L7.007 108.462H8.064V114.496C8.064 114.953 7.868 115.182 7.476 115.182ZM16.0231 115.182C15.6311 115.182 15.4351 114.953 15.4351 114.496V109.638H12.6631C12.3504 109.638 12.1428 109.675 12.0401 109.75C11.9421 109.825 11.8931 109.979 11.8931 110.212V113.18C11.8931 113.628 11.8324 113.994 11.7111 114.279C11.5898 114.559 11.4008 114.767 11.1441 114.902C10.8874 115.033 10.5538 115.098 10.1431 115.098C9.90044 115.098 9.70211 115.054 9.54811 114.965C9.39411 114.876 9.31711 114.72 9.31711 114.496C9.31711 114.104 9.56444 113.908 10.0591 113.908C10.3111 113.908 10.4838 113.868 10.5771 113.789C10.6704 113.71 10.7171 113.563 10.7171 113.348V110.366C10.7171 109.871 10.7708 109.486 10.8781 109.211C10.9854 108.936 11.1721 108.742 11.4381 108.63C11.7088 108.518 12.0798 108.462 12.5511 108.462H16.6111V114.482C16.6111 114.949 16.4151 115.182 16.0231 115.182ZM25.0717 115.182C24.6797 115.182 24.4837 114.939 24.4837 114.454V110.128L19.6747 115.084H18.5757V109.05C18.5757 108.593 18.7717 108.364 19.1637 108.364C19.5557 108.364 19.7517 108.607 19.7517 109.092V113.474L24.6027 108.462H25.6597V114.496C25.6597 114.953 25.4637 115.182 25.0717 115.182Z" fill="#043940"/>
<line x1="13.5" x2="13.5" y2="98" stroke="#043940"/>
<line x1="13.5" y1="122" x2="13.5" y2="220" stroke="#043940"/>
</svg>
