<svg width="239" height="18" viewBox="0 0 239 18" fill="none" xmlns="http://www.w3.org/2000/svg">
<path d="M113.476 14.182C113.084 14.182 112.888 13.9393 112.888 13.454V9.128L108.079 14.084H106.98V8.05C106.98 7.59267 107.176 7.364 107.568 7.364C107.96 7.364 108.156 7.60667 108.156 8.092V12.474L113.007 7.462H114.064V13.496C114.064 13.9533 113.868 14.182 113.476 14.182ZM122.023 14.182C121.631 14.182 121.435 13.9533 121.435 13.496V8.638H118.663C118.35 8.638 118.143 8.67533 118.04 8.75C117.942 8.82467 117.893 8.97867 117.893 9.212V12.18C117.893 12.628 117.832 12.9943 117.711 13.279C117.59 13.559 117.401 13.7667 117.144 13.902C116.887 14.0327 116.554 14.098 116.143 14.098C115.9 14.098 115.702 14.0537 115.548 13.965C115.394 13.8763 115.317 13.72 115.317 13.496C115.317 13.104 115.564 12.908 116.059 12.908C116.311 12.908 116.484 12.8683 116.577 12.789C116.67 12.7097 116.717 12.5627 116.717 12.348V9.366C116.717 8.87133 116.771 8.48633 116.878 8.211C116.985 7.93567 117.172 7.742 117.438 7.63C117.709 7.518 118.08 7.462 118.551 7.462L122.611 7.462V13.482C122.611 13.9487 122.415 14.182 122.023 14.182ZM131.072 14.182C130.68 14.182 130.484 13.9393 130.484 13.454V9.128L125.675 14.084H124.576V8.05C124.576 7.59267 124.772 7.364 125.164 7.364C125.556 7.364 125.752 7.60667 125.752 8.092V12.474L130.603 7.462L131.66 7.462V13.496C131.66 13.9533 131.464 14.182 131.072 14.182Z" fill="#043940"/>
<line x1="239" y1="11" x2="141" y2="11" stroke="#043940"/>
<line x1="98" y1="11" x2="-4.08122e-08" y2="11" stroke="#043940"/>
</svg>
